<?xml version="1.0" encoding="UTF-8" standalone="no"?>
<!DOCTYPE svg PUBLIC "-//W3C//DTD SVG 1.0//EN" "http://www.w3.org/TR/2001/REC-SVG-20010904/DTD/svg10.dtd">
<!-- Generated by Microsoft Visio 11.0, SVG Export, v1.0 version-info-explanation.svg Page-1 -->
<svg xmlns="http://www.w3.org/2000/svg" xmlns:xlink="http://www.w3.org/1999/xlink" xmlns:ev="http://www.w3.org/2001/xml-events"
		xmlns:v="http://schemas.microsoft.com/visio/2003/SVGExtensions/" width="11.6929in" height="8.26772in"
		viewBox="0 0 841.89 595.276" xml:space="preserve" color-interpolation-filters="sRGB" class="st6">
	<v:documentProperties v:langID="1033" v:metric="true" v:viewMarkup="false">
		<v:userDefs>
			<v:ud v:nameU="msvNoAutoConnect" v:val="VT0(0):26"/>
		</v:userDefs>
	</v:documentProperties>

	<style type="text/css">
	<![CDATA[
		.st1 {fill:none;stroke:none;stroke-linecap:round;stroke-linejoin:round;stroke-width:0.75}
		.st2 {fill:#000000;font-family:Consolas;font-size:1.83334em}
		.st3 {stroke:#404040;stroke-linecap:round;stroke-linejoin:round;stroke-width:0.25}
		.st4 {fill:#000000;font-family:Calibri;font-size:1.5em}
		.st5 {font-size:1em}
		.st6 {fill:none;fill-rule:evenodd;font-size:12px;overflow:visible;stroke-linecap:square;stroke-miterlimit:3}
	]]>
	</style>

	<defs id="Patterns_And_Gradients">
		<linearGradient id="grad30-7" v:fillPattern="30" v:foreground="#f0f0f0" v:background="#ffffff" x1="0" y1="1" x2="0" y2="0">
			<stop offset="0" style="stop-color:#f0f0f0;stop-opacity:1"/>
			<stop offset="1" style="stop-color:#ffffff;stop-opacity:1"/>
		</linearGradient>
	</defs>
	<g v:mID="0" v:index="1" v:groupContext="foregroundPage">
		<v:userDefs>
			<v:ud v:nameU="msvThemeColors" v:val="VT0(36):26"/>
			<v:ud v:nameU="msvThemeEffects" v:val="VT0(16):26"/>
			<v:ud v:nameU="msvThemeOrder" v:val="VT0(0):26"/>
		</v:userDefs>
		<title>Page-1</title>
		<v:pageProperties v:drawingScale="0.0393701" v:pageScale="0.0393701" v:drawingUnits="24" v:shadowOffsetX="8.50394"
				v:shadowOffsetY="-8.50394"/>
		<v:layer v:name="Connector" v:index="0"/>
		<g id="shape1-1" v:mID="1" v:groupContext="shape" transform="translate(17.0079,-290.836)">
			<title>Sheet.1</title>
			<desc>1.0.0.0.4658/master/20+1M/7ad05553b5bcc91c26f5de3e3216b2f4038...</desc>
			<v:textBlock v:margins="rect(2,2,2,2)" v:tabSpace="42.5197"/>
			<v:textRect cx="403.937" cy="556.442" width="807.88" height="77.6679"/>
			<rect x="0" y="517.608" width="807.874" height="77.6679" class="st1"/>
			<text x="4.78" y="563.04" class="st2" v:langID="1033"><v:paragraph v:horizAlign="1"/><v:tabList/>1.0.0.0.4658/master/20+1M/7ad05553b5bcc91c26f5de3e3216b2f40388a381</text>		</g>
		<g id="shape2-4" v:mID="2" v:groupContext="shape" transform="translate(334.488,831.969) scale(1,-1)">
			<title>Side brace</title>
			<desc>Full Commit Id</desc>
			<v:userDefs>
				<v:ud v:nameU="TxtW" v:val="VT0(2.5):29"/>
				<v:ud v:nameU="TxtA" v:val="VT0(3.1415926535898):32"/>
				<v:ud v:nameU="TxtAState" v:val="VT0(1):26"/>
				<v:ud v:nameU="TxtWState" v:val="VT0(1):26"/>
				<v:ud v:nameU="MaxRadius" v:val="VT0(0.19685039370079):24"/>
				<v:ud v:nameU="PosCH1" v:prompt="Constrains X postion of Control Handle #1" v:val="VT0(0):26"/>
				<v:ud v:nameU="PosCH2" v:prompt="Constrains Y postion of Control Handle #2" v:val="VT0(0):26"/>
				<v:ud v:nameU="Scale" v:val="VT0(1):26"/>
				<v:ud v:nameU="AntiScale" v:val="VT0(1):26"/>
				<v:ud v:nameU="visVersion" v:val="VT0(14):26"/>
				<v:ud v:nameU="msvThemeColors" v:val="VT0(36):26"/>
				<v:ud v:nameU="msvThemeEffects" v:val="VT0(16):26"/>
			</v:userDefs>
			<v:textBlock v:margins="rect(4,4,4,4)" v:tabSpace="42.5197"/>
			<v:textRect cx="236.693" cy="624.251" width="180" height="29.6036"/>
			<path d="M0 581.1 L0 581.1 A14.173 14.173 -180 0 0 14.17 595.28 L222.52 595.28 A14.173 14.173 0 0 1 236.69 609.45 A14.173
						 14.173 0 0 1 250.87 595.28 L467.72 595.28 A14.173 14.173 -180 0 0 481.89 581.1 L481.89 581.1" class="st3"/>
			<text x="183.63" y="-618.85" transform="scale(1,-1)" class="st4" v:langID="1033"><v:paragraph v:horizAlign="1"/><v:tabList/>Full Commit Id</text>		</g>
		<g id="shape3-10" v:mID="3" v:groupContext="shape" transform="translate(311.811,831.969) scale(1,-1)">
			<title>Side brace.3</title>
			<desc>M in case of non committed changes</desc>
			<v:userDefs>
				<v:ud v:nameU="TxtW" v:val="VT0(1.25):29"/>
				<v:ud v:nameU="TxtA" v:val="VT0(3.1415926535898):32"/>
				<v:ud v:nameU="TxtAState" v:val="VT0(1):26"/>
				<v:ud v:nameU="TxtWState" v:val="VT0(0):26"/>
				<v:ud v:nameU="MaxRadius" v:val="VT0(0.068897637795275):1"/>
				<v:ud v:nameU="PosCH1" v:prompt="Constrains X postion of Control Handle #1" v:val="VT0(0):26"/>
				<v:ud v:nameU="PosCH2" v:prompt="Constrains Y postion of Control Handle #2" v:val="VT0(0):26"/>
				<v:ud v:nameU="Scale" v:val="VT0(1):26"/>
				<v:ud v:nameU="AntiScale" v:val="VT0(1):26"/>
				<v:ud v:nameU="visVersion" v:val="VT0(14):26"/>
				<v:ud v:nameU="msvThemeColors" v:val="VT0(36):26"/>
				<v:ud v:nameU="msvThemeEffects" v:val="VT0(16):26"/>
			</v:userDefs>
			<v:textBlock v:margins="rect(4,4,4,4)" v:tabSpace="42.5197"/>
			<v:textRect cx="9.92126" cy="647.438" width="90" height="94.4036"/>
			<path d="M0 581.1 L0 590.31 A4.96055 4.96055 -180 0 0 4.96 595.28 A4.96055 4.96055 0 0 1 9.92 600.24 A4.96055 4.96055
						 0 0 1 14.88 595.28 A4.96055 4.96055 -180 0 0 19.84 590.31 L19.84 581.1" class="st3"/>
			<text x="-24.75" y="-674.44" transform="scale(1,-1)" class="st4" v:langID="1033"><v:paragraph v:horizAlign="1"/><v:tabList/>M in case <tspan
						x="-13.81" dy="1.2em" class="st5">of non </tspan><tspan x="-30.31" dy="1.2em" class="st5">committed </tspan><tspan
						x="-19.89" dy="1.2em" class="st5">changes</tspan></text>		</g>
		<g id="shape4-18" v:mID="4" v:groupContext="shape" transform="translate(311.811,-304.724) scale(-1,1)">
			<title>Side brace.4</title>
			<desc># of commits in the local repo + # of commits ahead of “origin”</desc>
			<v:userDefs>
				<v:ud v:nameU="TxtW" v:val="VT0(2.5):29"/>
				<v:ud v:nameU="TxtA" v:val="VT0(0):32"/>
				<v:ud v:nameU="TxtAState" v:val="VT0(1):26"/>
				<v:ud v:nameU="TxtWState" v:val="VT0(1):26"/>
				<v:ud v:nameU="MaxRadius" v:val="VT0(0.16240157480315):1"/>
				<v:ud v:nameU="PosCH1" v:prompt="Constrains X postion of Control Handle #1" v:val="VT0(0):26"/>
				<v:ud v:nameU="PosCH2" v:prompt="Constrains Y postion of Control Handle #2" v:val="VT0(0):26"/>
				<v:ud v:nameU="Scale" v:val="VT0(1):26"/>
				<v:ud v:nameU="AntiScale" v:val="VT0(1):26"/>
				<v:ud v:nameU="visVersion" v:val="VT0(14):26"/>
				<v:ud v:nameU="msvThemeColors" v:val="VT0(36):26"/>
				<v:ud v:nameU="msvThemeEffects" v:val="VT0(16):26"/>
			</v:userDefs>
			<v:textBlock v:margins="rect(4,4,4,4)" v:tabSpace="42.5197"/>
			<v:textRect cx="23.3858" cy="654.17" width="180" height="94.4036"/>
			<path d="M0 581.1 L0 583.58 A11.6927 11.6927 -180 0 0 11.69 595.28 L11.69 595.28 A11.6927 11.6927 0 0 1 23.39 606.97
						 A11.6927 11.6927 0 0 1 35.08 595.28 L35.08 595.28 A11.6927 11.6927 -180 0 0 46.77 583.58 L46.77 581.1"
					class="st3"/>
			<text x="-94.05" y="627.17" transform="scale(-1,1)" class="st4" v:langID="1033"><v:paragraph v:horizAlign="1"/><v:tabList/># of commits in the <tspan
						x="-82.07" dy="1.2em" class="st5">local repo </tspan>+ # of <tspan x="-89.04" dy="1.2em" class="st5">commits ahead of </tspan><tspan
						x="-51.9" dy="1.2em" class="st5">“</tspan>origin”</text>		</g>
		<g id="shape5-26" v:mID="5" v:groupContext="shape" transform="translate(180,829.134) scale(1,-1)">
			<title>Side brace.5</title>
			<desc>branch or tag name (“thing” to checkout)</desc>
			<v:userDefs>
				<v:ud v:nameU="TxtW" v:val="VT0(1.25):29"/>
				<v:ud v:nameU="TxtA" v:val="VT0(3.1415926535898):32"/>
				<v:ud v:nameU="TxtAState" v:val="VT0(1):26"/>
				<v:ud v:nameU="TxtWState" v:val="VT0(0):26"/>
				<v:ud v:nameU="MaxRadius" v:val="VT0(0.19685039370079):1"/>
				<v:ud v:nameU="PosCH1" v:prompt="Constrains X postion of Control Handle #1" v:val="VT0(0):26"/>
				<v:ud v:nameU="PosCH2" v:prompt="Constrains Y postion of Control Handle #2" v:val="VT0(0):26"/>
				<v:ud v:nameU="Scale" v:val="VT0(1):26"/>
				<v:ud v:nameU="AntiScale" v:val="VT0(1):26"/>
				<v:ud v:nameU="visVersion" v:val="VT0(14):26"/>
				<v:ud v:nameU="msvThemeColors" v:val="VT0(36):26"/>
				<v:ud v:nameU="msvThemeEffects" v:val="VT0(16):26"/>
			</v:userDefs>
			<v:textBlock v:margins="rect(4,4,4,4)" v:tabSpace="42.5197"/>
			<v:textRect cx="36.8504" cy="649.564" width="90" height="94.4036"/>
			<path d="M0 581.1 L0 588.19 A7.0865 7.0865 -180 0 0 7.09 595.28 L29.76 595.28 A7.0865 7.0865 0 0 1 36.85 602.36 A7.0865
						 7.0865 0 0 1 43.94 595.28 L65.2 595.28 A7.0865 7.0865 -180 0 0 72.28 588.19 L72.28 581.1" class="st3"/>
			<text x="1.49" y="-676.56" transform="scale(1,-1)" class="st4" v:langID="1033"><v:paragraph v:horizAlign="1"/><v:tabList/>branch or <tspan
						x="2.55" dy="1.2em" class="st5">tag name<v:newlineChar/></tspan><tspan x="-1.98" dy="1.2em" class="st5">(</tspan>“thing” to <tspan
						x="0.72" dy="1.2em" class="st5">checkout</tspan>)</text>		</g>
		<g id="shape6-34" v:mID="6" v:groupContext="shape" transform="translate(162.992,-304.724) scale(-1,1)">
			<title>Side brace.6</title>
			<desc>The AssemblyVersion of the assembly and the build day (# of d...</desc>
			<v:userDefs>
				<v:ud v:nameU="TxtW" v:val="VT0(2.5):29"/>
				<v:ud v:nameU="TxtA" v:val="VT0(0):32"/>
				<v:ud v:nameU="TxtAState" v:val="VT0(1):26"/>
				<v:ud v:nameU="TxtWState" v:val="VT0(1):26"/>
				<v:ud v:nameU="MaxRadius" v:val="VT0(0.19685039370079):1"/>
				<v:ud v:nameU="PosCH1" v:prompt="Constrains X postion of Control Handle #1" v:val="VT0(0):26"/>
				<v:ud v:nameU="PosCH2" v:prompt="Constrains Y postion of Control Handle #2" v:val="VT0(0):26"/>
				<v:ud v:nameU="Scale" v:val="VT0(1):26"/>
				<v:ud v:nameU="AntiScale" v:val="VT0(1):26"/>
				<v:ud v:nameU="visVersion" v:val="VT0(14):26"/>
				<v:ud v:nameU="msvThemeColors" v:val="VT0(36):26"/>
				<v:ud v:nameU="msvThemeEffects" v:val="VT0(16):26"/>
			</v:userDefs>
			<v:textBlock v:margins="rect(4,4,4,4)" v:tabSpace="42.5197"/>
			<v:textRect cx="68.0315" cy="663.376" width="180" height="116.004"/>
			<path d="M0 581.1 L0 585.18 A10.0983 10.0983 -180 0 0 10.1 595.28 L57.93 595.28 A10.0983 10.0983 0 0 1 68.03 605.37 A10.0983
						 10.0983 0 0 1 78.13 595.28 L128.8 595.28 A10.0983 10.0983 -180 0 0 138.9 585.18 L138.9 581.1" class="st3"/>
			<text x="-146.22" y="625.58" transform="scale(-1,1)" class="st4" v:langID="1033"><v:paragraph v:horizAlign="1"/><v:tabList/>The AssemblyVersion <tspan
						x="-141.5" dy="1.2em" class="st5">of the assembly and </tspan><tspan x="-153.19" dy="1.2em" class="st5">the build day </tspan>(# of days <tspan
						x="-147.18" dy="1.2em" class="st5">since </tspan>1/1/2000 in this <tspan x="-86.88" dy="1.2em" class="st5">case</tspan>)</text>		</g>
	</g>
</svg>
